<?xml version="1.0" encoding="UTF-8"?> <svg xmlns="http://www.w3.org/2000/svg" viewBox="0 0 140 139" fill="none"><path d="M64.3205 79.8565C63.5298 79.8565 62.805 79.5273 62.2778 79.0006L57.9948 74.7214C56.8746 73.6023 56.8087 71.7589 57.9289 70.6397C59.0491 69.5206 60.8941 69.4547 62.0143 70.5739L62.0802 70.6397L64.3205 72.8781L71.1075 66.0972C72.2277 64.978 74.0727 64.978 75.1929 66.0972C76.3131 67.2164 76.3131 69.0597 75.1929 70.1789L66.3632 79.0006C65.8361 79.5273 65.1113 79.8565 64.3205 79.8565Z" fill="#2088FF"></path><path d="M118.353 79.0006L127.183 70.1788C128.303 69.0597 128.237 67.2163 127.117 66.0971C125.997 65.0438 124.217 65.0438 123.097 66.0971L116.31 72.878L114.07 70.6397C112.95 69.5205 111.105 69.4547 109.985 70.5738C108.864 71.693 108.798 73.5364 109.919 74.6555L109.985 74.7214L114.268 79.0006C115.388 80.1198 117.167 80.1198 118.353 79.0006Z" fill="#2088FF"></path><path d="M43.6959 25.9388C43.2346 25.2146 42.5757 24.5562 41.8509 24.0954L27.0908 14.8128C24.3892 13.1012 20.8309 13.8912 19.1177 16.5904C18.5247 17.512 18.2611 18.5654 18.2611 19.6845V38.118C18.2611 41.2781 20.8309 43.9114 24.0597 43.9114C25.114 43.9114 26.1683 43.5822 27.0908 43.0556L41.8509 33.9047C44.4866 32.193 45.3432 28.638 43.6959 25.9388ZM23.9938 38.118V19.6845L38.7539 28.9671L23.9938 38.118Z" fill="#2088FF"></path><path d="M61.553 121.2C63.1542 121.2 64.4523 119.903 64.4523 118.303C64.4523 116.704 63.1542 115.407 61.553 115.407C59.9518 115.407 58.6537 116.704 58.6537 118.303C58.6537 119.903 59.9518 121.2 61.553 121.2Z" fill="#76B9FA"></path><path d="M73.0844 121.2C74.6856 121.2 75.9837 119.903 75.9837 118.303C75.9837 116.704 74.6856 115.407 73.0844 115.407C71.4831 115.407 70.1851 116.704 70.1851 118.303C70.1851 119.903 71.4831 121.2 73.0844 121.2Z" fill="#76B9FA"></path><path d="M139.505 72.0881C139.505 60.9622 130.411 51.8771 119.275 51.8771C109.26 51.8771 100.759 59.2505 99.3098 69.1914H87.3173C85.8676 59.2505 77.3674 51.8771 67.3516 51.8771C57.2041 51.8771 48.7697 59.448 47.386 69.1914H44.1572C37.3043 69.1914 31.4398 64.3197 30.1219 57.6705C45.9363 57.473 58.7196 44.6354 58.7196 28.8352C58.7196 12.9034 45.7386 0 29.8584 0C13.8463 0 0.865356 12.9693 0.865356 28.8352C0.865356 42.5287 10.5517 54.313 23.9939 57.078V98.0925C23.9939 110.798 34.3391 121.2 47.1224 121.2H47.386C48.8356 131.141 57.3358 138.515 67.3516 138.515C78.4876 138.515 87.5808 129.429 87.5808 118.303C87.5808 107.178 78.4876 98.0925 67.3516 98.0925C57.2041 98.0925 48.7697 105.663 47.386 115.407H47.1224C37.5679 115.407 29.7925 107.638 29.7925 98.0925V68.9939C33.4166 72.6806 38.4904 74.9848 44.1572 74.9848H47.386C48.8356 84.9257 57.3358 92.2991 67.3516 92.2991C77.3674 92.2991 85.8676 84.9257 87.3173 74.9848H99.3098C100.759 84.9257 109.26 92.2991 119.275 92.2991C130.411 92.2991 139.505 83.2799 139.505 72.0881ZM67.2857 103.82C75.2588 103.82 81.7163 110.272 81.7163 118.238C81.7163 126.204 75.2588 132.655 67.2857 132.655C59.3126 132.655 52.8551 126.204 52.8551 118.238C52.8551 110.338 59.3785 103.82 67.2857 103.82ZM6.66396 28.8352C6.66396 16.1293 17.0092 5.72755 29.7925 5.72755C42.5099 5.72755 52.921 16.0635 52.921 28.8352C52.921 41.5412 42.5758 51.9429 29.7925 51.9429C17.0092 51.9429 6.66396 41.607 6.66396 28.8352ZM67.2857 86.5716C59.3126 86.5716 52.8551 80.1198 52.8551 72.1539C52.8551 64.188 59.3126 57.7363 67.2857 57.7363C75.2588 57.7363 81.7163 64.188 81.7163 72.1539C81.7163 80.1198 75.2588 86.5716 67.2857 86.5716ZM104.845 72.0881C104.845 64.1222 111.302 57.6705 119.275 57.6705C127.249 57.6705 133.706 64.1222 133.706 72.0881C133.706 80.054 127.249 86.5057 119.275 86.5057C111.302 86.5057 104.845 80.054 104.845 72.0881Z" fill="#2088FF"></path><path d="M119.275 98.0923C109.194 98.0923 100.694 105.532 99.3098 115.472C99.2439 115.472 99.1121 115.407 98.9804 115.407L96.0811 115.472C94.5655 115.538 93.3794 116.789 93.3794 118.303C93.3135 119.883 94.5655 121.2 96.2128 121.266H96.2787L99.178 121.2C99.2439 121.2 99.2439 121.2 99.3098 121.2C100.759 131.141 109.26 138.514 119.275 138.514C130.411 138.514 139.505 129.429 139.505 118.303C139.505 107.112 130.411 98.0923 119.275 98.0923ZM119.275 132.721C111.302 132.721 104.845 126.269 104.845 118.303C104.845 110.337 111.302 103.886 119.275 103.886C127.249 103.886 133.706 110.337 133.706 118.303C133.706 126.203 127.249 132.721 119.275 132.721Z" fill="#76B9FA"></path></svg> 
