<svg width="460" height="231" viewBox="0 0 460 231" fill="none" xmlns="http://www.w3.org/2000/svg">
  <rect width="460" height="230" transform="translate(0 0.5)" fill="black" />
  <mask id="mask0_401_14" style="mask-type:alpha" maskUnits="userSpaceOnUse" x="76" y="76"
    width="304" height="76">
    <path
      d="M90.5959 92.9569L141.388 92.4166L144.09 76.2062H147.873H155.437V95.1183H230.005H379.141V151.314H78.7317L76.5469 108.334L90.5959 92.9569Z"
      fill="#D9D9D9" />
  </mask>
  <g mask="url(#mask0_401_14)">
    <path
      d="M119.93 105.409C118.339 104.856 116.61 104.406 114.743 104.061C112.944 103.646 111.146 103.438 109.348 103.438C102.57 103.438 97.5207 105.029 94.2008 108.21C90.8809 111.392 89.221 116.441 89.221 123.357C89.221 126.401 89.7051 129.133 90.6734 131.553C91.6417 133.905 93.025 135.911 94.8233 137.571C96.6216 139.231 98.7657 140.51 101.256 141.409C103.815 142.308 106.616 142.758 109.659 142.758C112.91 142.758 116.057 142.205 119.1 141.098C122.212 139.991 124.806 138.539 126.881 136.741L130.512 142.758C129.544 143.588 128.333 144.453 126.881 145.352C125.428 146.251 123.734 147.115 121.797 147.945C119.93 148.706 117.82 149.329 115.469 149.813C113.186 150.297 110.697 150.539 107.999 150.539C103.503 150.539 99.5265 149.917 96.0683 148.672C92.6792 147.357 89.8435 145.525 87.5611 143.173C85.2786 140.752 83.5495 137.882 82.3737 134.562C81.1979 131.173 80.61 127.438 80.61 123.357C80.61 119 81.1979 115.127 82.3737 111.738C83.6187 108.349 85.3824 105.513 87.6648 103.231C89.9472 100.948 92.7138 99.2191 95.9645 98.0433C99.2152 96.7984 102.846 96.1759 106.858 96.1759C111.976 96.1759 116.126 96.6255 119.307 97.5246C122.558 98.4237 125.29 99.4266 127.503 100.533L127.4 100.844V115.265H119.93V105.409ZM145.93 76.6716H154.541V141.617H183.901V123.565H191.578V149.294H145.93V76.6716ZM209.693 149.294V142.343H227.745V104.372H209.693V97.4209H236.045V142.343H253.682V149.294H209.693ZM224.944 82.6889C224.944 80.8214 225.566 79.2307 226.811 77.9165C228.056 76.5333 229.647 75.8416 231.584 75.8416C233.59 75.8416 235.25 76.5333 236.564 77.9165C237.947 79.2307 238.639 80.8214 238.639 82.6889C238.639 84.4871 237.947 86.0088 236.564 87.2537C235.25 88.4987 233.59 89.1211 231.584 89.1211C229.647 89.1211 228.056 88.4987 226.811 87.2537C225.566 86.0088 224.944 84.4871 224.944 82.6889ZM292.339 139.231H293.48L309.768 97.4209H318.794L296.904 149.294H287.774L265.468 97.4209H275.013L292.339 139.231ZM378.096 142.758C376.851 143.865 375.364 144.902 373.635 145.87C371.975 146.839 370.143 147.669 368.137 148.36C366.131 149.052 364.022 149.571 361.808 149.917C359.664 150.332 357.485 150.539 355.272 150.539C351.122 150.539 347.457 149.917 344.275 148.672C341.094 147.357 338.431 145.525 336.287 143.173C334.143 140.752 332.517 137.882 331.411 134.562C330.304 131.242 329.751 127.507 329.751 123.357C329.751 119 330.339 115.127 331.514 111.738C332.759 108.349 334.523 105.513 336.805 103.231C339.088 100.948 341.854 99.2191 345.105 98.0433C348.356 96.7984 351.987 96.1759 355.998 96.1759C358.903 96.1759 361.774 96.5563 364.609 97.3171C367.445 98.0779 369.935 99.5304 372.079 101.674C374.292 103.749 375.987 106.654 377.163 110.389C378.339 114.055 378.754 118.827 378.408 124.706H338.258C338.258 130.931 339.918 135.6 343.238 138.712C346.627 141.755 351.122 143.277 356.725 143.277C358.592 143.277 360.425 143.069 362.223 142.654C364.091 142.17 365.854 141.617 367.514 140.994C369.174 140.372 370.627 139.68 371.872 138.919C373.186 138.159 374.189 137.467 374.88 136.845L378.096 142.758ZM356.206 103.023C353.924 103.023 351.745 103.265 349.67 103.749C347.664 104.234 345.866 105.064 344.275 106.239C342.753 107.346 341.474 108.833 340.436 110.7C339.468 112.499 338.846 114.747 338.569 117.444H370.834C370.488 112.879 369.001 109.352 366.373 106.862C363.814 104.303 360.425 103.023 356.206 103.023Z"
      fill="white" />
  </g>
  <path d="M232.167 51.8906V69.1817H240.812L227.844 95.1183V77.8272H219.198L232.167 51.8906Z"
    fill="#FF00FF" />
</svg>
