<svg width="460" height="230" viewBox="0 0 460 230" fill="none" xmlns="http://www.w3.org/2000/svg">
  <rect width="460" height="230" fill="#DDFCFF" />
  <path
    d="M297.19 70.3003L297.143 69.9589L292.323 34.4023C292.323 34.4014 292.323 34.4005 292.323 34.3996L291.91 31.3533C291.725 29.991 290.241 29.2286 289.026 29.8723L286.309 31.3117C286.308 31.3121 286.308 31.3124 286.307 31.3127L254.6 48.1112L254.296 48.2725L254.602 48.4298L296.883 70.1429L297.19 70.3003Z"
    fill="#F3B16E" stroke="black" stroke-width="0.359375" />
  <path
    d="M285.413 37.184C286.533 36.5599 287.928 37.2761 288.073 38.55L291.328 67.088L260.322 51.1651L285.413 37.184Z"
    fill="#F6E1EE" />
  <path
    d="M284.033 37.9533C285.831 36.9514 288.019 38.0751 288.252 40.1203L291.328 67.088L260.322 51.1651L284.033 37.9533Z"
    fill="#F6E1EE" />
  <path
    d="M163.078 70.3003L163.125 69.9589L167.945 34.4023C167.945 34.4014 167.945 34.4005 167.945 34.3996L168.358 31.3533C168.543 29.991 170.027 29.2286 171.242 29.8723L173.959 31.3117C173.96 31.3121 173.96 31.3124 173.961 31.3127L205.668 48.1112L205.972 48.2725L205.666 48.4298L163.385 70.1429L163.078 70.3003Z"
    fill="#F3B16E" stroke="black" stroke-width="0.359375" />
  <path
    d="M174.855 37.184C173.735 36.5599 172.341 37.2761 172.195 38.55L168.94 67.088L199.946 51.1651L174.855 37.184Z"
    fill="#F6E1EE" />
  <path
    d="M176.236 37.9533C174.438 36.9514 172.25 38.0751 172.016 40.1203L168.94 67.088L199.946 51.1651L176.236 37.9533Z"
    fill="#F6E1EE" />
  <path
    d="M319.463 119.763C319.463 130.182 317.187 138.214 313.016 144.406C308.846 150.598 302.769 154.966 295.14 158.039C279.869 164.189 258.417 165.133 233.692 165.133C208.97 165.133 185.73 164.189 168.674 158.037C160.15 154.962 153.182 150.59 148.345 144.396C143.51 138.204 140.792 130.175 140.792 119.763C140.792 78.1075 180.759 44.2901 230.128 44.2901C279.496 44.2901 319.463 78.1075 319.463 119.763Z"
    fill="#69D7E2" stroke="black" stroke-width="0.359375" />
  <path
    d="M224.403 90.0563C224.403 103.064 212.621 113.642 198.045 113.642C183.468 113.642 171.687 103.064 171.687 90.0563C171.687 77.0485 183.468 66.4709 198.045 66.4709C212.621 66.4709 224.403 77.0485 224.403 90.0563Z"
    fill="white" stroke="black" stroke-width="0.359375" />
  <ellipse cx="184.974" cy="91.2446" rx="7.92171" ry="8.31779" fill="black" />
  <ellipse cx="188.539" cy="93.225" rx="1.98043" ry="2.37651" fill="white" />
  <path
    d="M288.569 90.0563C288.569 103.064 276.787 113.642 262.211 113.642C247.634 113.642 235.853 103.064 235.853 90.0563C235.853 77.0485 247.634 66.4709 262.211 66.4709C276.787 66.4709 288.569 77.0485 288.569 90.0563Z"
    fill="white" stroke="black" stroke-width="0.359375" />
  <ellipse cx="249.139" cy="91.2446" rx="7.92171" ry="8.31779" fill="black" />
  <ellipse cx="252.705" cy="93.225" rx="1.98043" ry="2.37651" fill="white" />
  <path
    d="M220.801 122.715H229.948V141.044C229.948 141.741 229.503 142.359 228.842 142.579L227.022 143.185C225.953 143.542 224.796 143.542 223.727 143.185L221.907 142.579C221.247 142.359 220.801 141.741 220.801 141.044V122.715Z"
    fill="white" stroke="black" stroke-width="0.359375" />
  <path
    d="M230.307 122.715H239.454V141.044C239.454 141.741 239.008 142.359 238.348 142.579L236.528 143.185C235.459 143.542 234.302 143.542 233.233 143.185L231.413 142.579C230.753 142.359 230.307 141.741 230.307 141.044V122.715Z"
    fill="white" stroke="black" stroke-width="0.359375" />
  <path
    d="M250.544 120.951C250.544 121.037 250.544 121.124 250.545 121.211C250.546 122.31 250.548 123.505 250.311 124.644C250.056 125.867 249.528 127.009 248.437 127.874C247.343 128.741 245.661 129.347 243.063 129.453C240.466 129.558 236.966 129.161 232.255 128.035C230.862 127.702 229.393 127.753 228.022 128.162C219.523 130.697 215.167 129.984 212.931 128.145C210.693 126.303 210.503 123.274 210.503 120.951C210.503 119.802 211.036 118.546 212.02 117.299C213.003 116.054 214.428 114.831 216.184 113.754C219.696 111.6 224.516 110.04 229.731 110.04C234.948 110.04 240.167 111.601 244.078 113.758C246.034 114.837 247.656 116.062 248.787 117.309C249.921 118.559 250.544 119.812 250.544 120.951Z"
    fill="#F6D2A2" stroke="black" stroke-width="0.359375" />
  <ellipse cx="230.524" cy="111.445" rx="9.90213" ry="7.12954" fill="black" />
  <line x1="245.179" y1="123.148" x2="332.318" y2="123.148" stroke="black" stroke-width="0.359375" />
  <line x1="245.329" y1="120.608" x2="332.136" y2="113.014" stroke="black" stroke-width="0.359375" />
  <line x1="245.36" y1="125.688" x2="332.168" y2="133.283" stroke="black" stroke-width="0.359375" />
  <line y1="-0.179688" x2="87.1388" y2="-0.179688" transform="matrix(-1 0 0 1 215.076 123.164)"
    stroke="black" stroke-width="0.359375" />
  <line y1="-0.179688" x2="87.1388" y2="-0.179688"
    transform="matrix(-0.996195 -0.0871557 -0.0871557 0.996195 214.911 120.624)" stroke="black"
    stroke-width="0.359375" />
  <line y1="-0.179688" x2="87.1388" y2="-0.179688"
    transform="matrix(-0.996195 0.0871557 0.0871557 0.996195 214.911 125.704)" stroke="black"
    stroke-width="0.359375" />
  <path
    d="M210.532 210.601C207.904 210.601 205.894 210.14 204.501 209.219C203.12 208.31 202.429 207.029 202.429 205.378C202.429 204.244 202.783 203.295 203.49 202.531C204.198 201.768 205.237 201.223 206.607 200.897C206.079 200.673 205.619 200.308 205.226 199.802C204.833 199.286 204.636 198.741 204.636 198.168C204.636 197.45 204.844 196.854 205.259 196.383C205.675 195.9 206.276 195.428 207.062 194.968C206.073 194.541 205.287 193.856 204.703 192.913C204.131 191.969 203.844 190.857 203.844 189.577C203.844 188.207 204.142 187.045 204.737 186.09C205.344 185.124 206.219 184.389 207.365 183.883C208.522 183.378 209.926 183.125 211.576 183.125C211.925 183.125 212.329 183.148 212.789 183.193C213.25 183.238 213.671 183.288 214.053 183.344C214.446 183.4 214.71 183.445 214.844 183.479H221.414V186.09L218.466 186.848C218.736 187.264 218.938 187.707 219.073 188.179C219.208 188.651 219.275 189.15 219.275 189.678C219.275 191.7 218.567 193.278 217.152 194.412C215.749 195.535 213.794 196.096 211.29 196.096C210.695 196.063 210.133 196.018 209.605 195.962C209.347 196.164 209.151 196.377 209.016 196.602C208.881 196.826 208.814 197.062 208.814 197.309C208.814 197.556 208.915 197.764 209.117 197.933C209.33 198.09 209.645 198.213 210.06 198.303C210.487 198.382 211.015 198.421 211.644 198.421H214.844C216.911 198.421 218.483 198.865 219.561 199.752C220.651 200.639 221.195 201.942 221.195 203.66C221.195 205.861 220.274 207.568 218.433 208.781C216.602 209.994 213.969 210.601 210.532 210.601ZM210.751 207.248C211.975 207.248 213.025 207.13 213.901 206.895C214.788 206.67 215.468 206.344 215.939 205.917C216.411 205.502 216.647 205.002 216.647 204.418C216.647 203.947 216.507 203.57 216.226 203.29C215.956 203.02 215.541 202.829 214.979 202.717C214.429 202.604 213.721 202.548 212.857 202.548H210.195C209.566 202.548 208.999 202.649 208.494 202.852C208 203.054 207.606 203.334 207.314 203.694C207.022 204.064 206.876 204.491 206.876 204.974C206.876 205.682 207.213 206.238 207.887 206.642C208.572 207.046 209.527 207.248 210.751 207.248ZM211.576 192.963C212.542 192.963 213.25 192.666 213.699 192.07C214.148 191.475 214.373 190.667 214.373 189.645C214.373 188.51 214.137 187.662 213.665 187.101C213.205 186.528 212.509 186.242 211.576 186.242C210.633 186.242 209.926 186.528 209.454 187.101C208.982 187.662 208.746 188.51 208.746 189.645C208.746 190.667 208.977 191.475 209.437 192.07C209.909 192.666 210.622 192.963 211.576 192.963ZM232.246 183.092C234.773 183.092 236.71 183.642 238.058 184.742C239.406 185.843 240.079 187.516 240.079 189.762V202.312H236.491L235.497 199.752H235.363C234.823 200.426 234.273 200.976 233.712 201.403C233.15 201.83 232.504 202.144 231.774 202.346C231.044 202.548 230.157 202.649 229.113 202.649C228.001 202.649 227.001 202.436 226.114 202.009C225.238 201.583 224.548 200.931 224.042 200.055C223.537 199.168 223.284 198.045 223.284 196.686C223.284 194.687 223.986 193.216 225.39 192.272C226.794 191.318 228.899 190.79 231.707 190.689L234.975 190.588V189.762C234.975 188.774 234.717 188.05 234.2 187.589C233.684 187.129 232.965 186.899 232.044 186.899C231.134 186.899 230.241 187.028 229.365 187.286C228.49 187.544 227.614 187.87 226.738 188.263L225.036 184.793C226.036 184.265 227.153 183.85 228.388 183.546C229.635 183.243 230.921 183.092 232.246 183.092ZM234.975 193.586L232.987 193.654C231.325 193.699 230.168 193.996 229.517 194.547C228.877 195.097 228.557 195.821 228.557 196.72C228.557 197.506 228.787 198.067 229.248 198.404C229.708 198.73 230.309 198.893 231.05 198.893C232.151 198.893 233.077 198.567 233.83 197.916C234.593 197.264 234.975 196.338 234.975 195.136V193.586ZM253.32 198.556C253.882 198.556 254.426 198.5 254.954 198.387C255.493 198.275 256.027 198.135 256.554 197.966V201.79C256.004 202.037 255.319 202.24 254.499 202.397C253.691 202.565 252.803 202.649 251.838 202.649C250.715 202.649 249.704 202.47 248.805 202.11C247.918 201.74 247.216 201.105 246.7 200.207C246.194 199.297 245.942 198.034 245.942 196.417V187.337H243.482V185.164L246.312 183.445L247.795 179.47H251.08V183.479H256.352V187.337H251.08V196.417C251.08 197.135 251.282 197.674 251.686 198.034C252.102 198.382 252.646 198.556 253.32 198.556Z"
    fill="black" />
</svg>
