<svg width="1280" height="640" viewBox="0 0 1280 640" fill="none" xmlns="http://www.w3.org/2000/svg">
  <rect width="1280" height="640" fill="#222222" />
  <path
    d="M969.226 407L961.625 381.576H898.458L890.857 407H831.621L897.409 226.672H964.771L1030.56 407H969.226ZM910.515 341.212H949.568L930.697 276.996H929.648L910.515 341.212ZM1055.02 407V226.672H1112.94V407H1055.02Z"
    fill="url(#paint0_linear_1_10)" />
  <path
    d="M256.181 268.608H316.989L265.879 324.437L318.3 407H259.064L229.971 359.559L211.885 377.12V407H159.726V216.712H211.885V321.554L256.181 268.608ZM402.958 265.463C424.101 265.463 441.313 269.045 454.593 276.209C467.873 283.199 474.513 294.644 474.513 310.545V364.539C474.513 367.509 475.212 369.956 476.61 371.878C478.007 373.8 480.104 374.761 482.9 374.761H492.336V404.903C491.812 405.253 490.414 405.864 488.142 406.738C486.045 407.437 482.987 408.136 478.968 408.835C474.95 409.708 470.319 410.145 465.077 410.145C454.942 410.145 446.555 408.66 439.915 405.689C433.45 402.544 428.994 398.263 426.547 392.846C419.907 398.088 412.481 402.282 404.268 405.427C396.056 408.573 386.445 410.145 375.437 410.145C342.936 410.145 326.685 397.215 326.685 371.354C326.685 357.899 330.267 347.677 337.432 340.687C344.771 333.523 355.255 328.631 368.884 326.009C382.514 323.388 400.337 322.078 422.354 322.078V315.263C422.354 309.846 420.432 305.74 416.587 302.944C412.918 300.148 408.113 298.751 402.172 298.751C396.755 298.751 392.037 299.712 388.018 301.634C384.174 303.556 382.252 306.614 382.252 310.807V311.856H330.879C330.704 310.982 330.617 309.759 330.617 308.186C330.617 295.081 336.82 284.684 349.226 276.996C361.807 269.307 379.718 265.463 402.958 265.463ZM422.354 346.716C407.501 346.716 396.493 348.376 389.328 351.696C382.339 354.841 378.844 359.122 378.844 364.539C378.844 373.276 384.785 377.644 396.667 377.644C403.482 377.644 409.423 375.809 414.491 372.14C419.733 368.471 422.354 363.927 422.354 358.511V346.716ZM604.777 265.463C620.853 265.463 632.91 269.919 640.947 278.831C648.985 287.742 653.004 300.585 653.004 317.36V407H600.845V323.651C600.845 317.709 599.273 312.992 596.127 309.497C593.157 305.827 588.876 303.993 583.284 303.993C576.819 303.993 571.577 306.089 567.558 310.283C563.539 314.477 561.53 319.632 561.53 325.747V407H509.371V268.608H552.094L555.501 289.577C560.918 282.238 567.995 276.384 576.732 272.016C585.643 267.647 594.992 265.463 604.777 265.463ZM749.981 265.463C768.503 265.463 784.142 269.133 796.898 276.472C809.829 283.636 816.294 294.819 816.294 310.021H767.804C767.804 304.954 765.533 301.372 760.99 299.275C757.844 297.527 753.913 296.654 749.195 296.654C736.614 296.654 730.323 299.624 730.323 305.565C730.323 308.885 732.508 311.244 736.876 312.642C741.244 314.04 748.409 315.525 758.369 317.098C770.6 318.845 780.822 320.942 789.035 323.388C797.248 325.66 804.412 329.854 810.528 335.969C816.643 341.911 819.701 350.298 819.701 361.132C819.701 378.78 813.061 391.361 799.781 398.875C786.676 406.388 769.464 410.145 748.146 410.145C735.915 410.145 724.382 408.485 713.549 405.165C702.715 401.671 693.891 396.341 687.076 389.177C680.261 382.013 676.854 372.926 676.854 361.918H725.343V362.966C725.518 368.907 727.964 373.101 732.682 375.547C737.575 377.819 742.73 378.955 748.146 378.955C762.65 378.955 769.901 375.547 769.901 368.733C769.901 365.238 767.63 362.704 763.086 361.132C758.543 359.559 751.117 357.899 740.808 356.152C728.401 354.055 718.179 351.783 710.141 349.337C702.278 346.891 695.376 342.784 689.435 337.018C683.494 331.077 680.523 322.864 680.523 312.38C680.523 295.431 686.901 283.374 699.657 276.209C712.588 269.045 729.362 265.463 749.981 265.463Z"
    fill="white" />
  <defs>
    <linearGradient id="paint0_linear_1_10" x1="982" y1="177" x2="982" y2="462"
      gradientUnits="userSpaceOnUse">
      <stop offset="0.375" stop-color="#FF0000" />
      <stop offset="1" stop-color="#FF0000" stop-opacity="0" />
    </linearGradient>
  </defs>
</svg>
